<svg width="142" height="56" viewBox="0 0 142 56" fill="none" xmlns="http://www.w3.org/2000/svg">
<path d="M27.531 9.248C26.421 9.248 24.904 10.1113 22.98 11.838C22.314 12.3807 21.9193 12.8247 21.796 13.17C21.0067 15.242 20.2297 18.5227 19.465 23.012C18.7003 27.4767 18.318 30.782 18.318 32.928C18.318 33.6187 18.3427 34.2353 18.392 34.778C18.4413 35.296 18.4907 35.6413 18.54 35.814L18.614 36.11C18.6633 36.3567 18.688 36.4923 18.688 36.517C18.688 36.7883 18.5647 36.924 18.318 36.924C18.0467 36.924 17.7137 36.7637 17.319 36.443C16.9243 36.147 16.5667 35.7277 16.246 35.185C15.6293 34.0997 15.321 32.4593 15.321 30.264C15.321 26.8847 16.1227 22.753 17.726 17.869C17.8 17.573 17.837 17.3757 17.837 17.277C17.837 17.1043 17.7877 17.018 17.689 17.018L17.208 17.314C15.4073 18.7693 13.434 20.903 11.288 23.715C10.5233 24.7017 9.78333 25.7623 9.068 26.897C8.35267 28.0317 7.83467 28.9197 7.514 29.561L7.033 30.523C6.441 31.8057 5.54067 33.15 4.332 34.556C3.12333 35.962 2.112 36.665 1.298 36.665C1.02667 36.665 0.891 36.5293 0.891 36.258L1.002 35.777C1.27333 35.0123 2.42033 32.6567 4.443 28.71C6.46567 24.7387 8.08133 21.7047 9.29 19.608C10.4493 17.61 11.584 15.723 12.694 13.947C13.804 12.171 14.6303 10.9007 15.173 10.136L15.987 8.952C16.1103 8.77933 16.2707 8.56967 16.468 8.323C16.6653 8.05167 17.0723 7.694 17.689 7.25C18.3057 6.806 18.91 6.57167 19.502 6.547C19.7733 6.547 19.909 6.68267 19.909 6.954C19.909 7.12667 19.8473 7.324 19.724 7.546C16.5667 12.6027 14.3097 16.537 12.953 19.349C12.9283 19.497 12.916 19.6203 12.916 19.719C12.916 19.867 12.953 19.941 13.027 19.941C13.1257 19.941 13.2737 19.8423 13.471 19.645L17.245 15.834C23.683 9.544 27.8393 6.38666 29.714 6.362C30.4047 6.362 30.75 6.769 30.75 7.583C30.75 8.22433 30.5527 8.89033 30.158 9.581C29.788 10.247 29.4303 10.58 29.085 10.58C28.937 10.58 28.8507 10.4813 28.826 10.284C28.8013 10.21 28.7643 10.1237 28.715 10.025C28.6903 9.90167 28.567 9.74133 28.345 9.544C28.123 9.34667 27.8517 9.248 27.531 9.248ZM28.4528 28.821L29.5998 26.86C29.5998 26.786 29.5752 26.749 29.5258 26.749C29.4765 26.749 29.4148 26.786 29.3408 26.86C28.4282 27.9207 27.4785 28.9567 26.4918 29.968C25.5052 30.9547 24.7528 31.6823 24.2348 32.151L23.4208 32.854C21.4968 34.6793 20.1648 35.592 19.4248 35.592C19.0795 35.592 18.9068 35.37 18.9068 34.926C18.9068 34.4327 19.1165 33.6803 19.5358 32.669C19.9305 31.6577 20.3375 30.7573 20.7568 29.968L21.3488 28.821C23.4208 24.9483 24.9502 22.3583 25.9368 21.051C26.4302 20.4097 27.0345 19.8793 27.7498 19.46C28.4652 19.016 29.0202 18.794 29.4148 18.794C29.6615 18.794 29.7848 18.8803 29.7848 19.053C29.7848 19.1517 29.7355 19.2873 29.6368 19.46C29.5875 19.5587 29.0818 20.385 28.1198 21.939C27.1578 23.4683 26.3808 24.788 25.7888 25.898C24.1608 28.8827 23.3468 30.597 23.3468 31.041C23.3468 31.2137 23.4208 31.3 23.5688 31.3C23.7908 31.3 24.1732 31.078 24.7158 30.634C26.3192 29.2527 28.0828 27.3903 30.0068 25.047C31.0675 23.9123 32.1775 22.4323 33.3368 20.607C34.1262 19.3983 35.1745 18.794 36.4818 18.794C36.7038 18.794 36.8148 18.8927 36.8148 19.09L36.5188 19.793C36.1735 20.4097 35.3965 21.7663 34.1878 23.863C33.0038 25.935 32.3255 27.119 32.1528 27.415C31.1415 29.191 30.6358 30.3627 30.6358 30.93C30.6358 31.152 30.7098 31.263 30.8578 31.263C31.1045 31.263 31.8938 30.6463 33.2258 29.413C34.2618 28.377 35.6308 26.8847 37.3328 24.936C37.4068 24.862 37.4685 24.825 37.5178 24.825C37.5672 24.825 37.5918 24.8743 37.5918 24.973C37.5918 25.4417 37.4068 25.898 37.0368 26.342C35.2115 28.3647 33.5958 30.0543 32.1898 31.411C31.2278 32.3237 30.1425 33.2363 28.9338 34.149C27.7498 35.0617 26.8865 35.518 26.3438 35.518C25.9738 35.518 25.7888 35.259 25.7888 34.741C25.7888 34.445 26.0108 33.8037 26.4548 32.817C26.8988 31.8303 27.3428 30.9177 27.7868 30.079L28.4528 28.821ZM43.1083 27.341C42.911 27.341 42.8123 27.267 42.8123 27.119C42.8123 27.045 42.8493 26.9463 42.9233 26.823C44.3786 24.5537 45.1063 22.9997 45.1063 22.161C45.1063 21.939 45.02 21.828 44.8473 21.828C44.1073 21.828 42.3683 23.5053 39.6303 26.86C38.8163 27.896 38.0516 28.969 37.3363 30.079C36.6456 31.189 36.1646 32.04 35.8933 32.632L35.4493 33.483C35.1533 34.075 34.697 34.6177 34.0803 35.111C33.4636 35.629 32.8223 35.888 32.1563 35.888C31.811 35.888 31.6383 35.8017 31.6383 35.629C31.6383 35.481 31.7493 35.1727 31.9713 34.704C32.1686 34.2353 32.4153 33.7173 32.7113 33.15C33.0073 32.5827 33.3033 32.0277 33.5993 31.485C33.8953 30.9423 34.142 30.486 34.3393 30.116L34.6723 29.561L38.5573 22.79C40.062 19.9533 41.6406 18.535 43.2933 18.535C43.5153 18.535 43.6263 18.6213 43.6263 18.794C43.6263 19.016 43.0836 19.941 41.9983 21.569C40.9376 23.1723 40.321 24.196 40.1483 24.64C40.099 24.788 40.0743 24.8743 40.0743 24.899C40.0743 24.9483 40.099 24.973 40.1483 24.973C40.1976 24.973 40.284 24.9113 40.4073 24.788C42.2573 22.6913 44.2183 20.829 46.2903 19.201C46.4136 19.0777 46.685 18.905 47.1043 18.683C47.5236 18.4363 47.8936 18.313 48.2143 18.313C48.683 18.313 48.9173 18.72 48.9173 19.534C48.9173 20.422 48.6213 21.4827 48.0293 22.716C47.4373 23.9493 46.6356 25.0347 45.6243 25.972L45.4763 26.12C45.3776 26.194 45.2666 26.2803 45.1433 26.379C45.0446 26.453 44.909 26.5517 44.7363 26.675C44.5636 26.7983 44.391 26.9093 44.2183 27.008C44.0456 27.082 43.8606 27.156 43.6633 27.23C43.466 27.304 43.281 27.341 43.1083 27.341ZM66.5544 19.682C65.0251 19.756 63.3231 19.793 61.4484 19.793H61.0044C57.5264 26.1077 55.4544 30.3873 54.7884 32.632C54.6898 32.928 54.6404 33.1993 54.6404 33.446C54.6404 34.186 55.2941 34.556 56.6014 34.556C57.1441 34.556 57.7361 34.4573 58.3774 34.26C59.0188 34.038 59.7958 33.668 60.7084 33.15C61.6458 32.6073 62.6941 31.7563 63.8534 30.597C65.0128 29.4377 66.1968 28.0317 67.4054 26.379C67.5534 26.1077 67.7754 25.972 68.0714 25.972C68.2688 25.972 68.3674 26.0707 68.3674 26.268C68.3674 26.3173 68.3428 26.416 68.2934 26.564C67.1094 29.598 65.6048 32.3113 63.7794 34.704C63.6314 35.0493 63.2614 35.2713 62.6694 35.37C60.6468 35.4687 58.5131 35.518 56.2684 35.518C53.7031 35.518 51.6311 35.4317 50.0524 35.259C49.7564 35.2343 49.6084 35.0617 49.6084 34.741C49.6084 34.5437 49.6578 34.3463 49.7564 34.149C51.1624 30.9917 53.8141 26.194 57.7114 19.756L56.0464 19.719C55.7258 19.719 55.5654 19.6203 55.5654 19.423C55.5654 19.2257 55.6641 19.053 55.8614 18.905C56.0834 18.7323 56.3054 18.646 56.5274 18.646H58.4144L62.8914 11.468C63.2614 10.802 63.4464 10.1977 63.4464 9.655C63.4464 9.285 63.3601 8.96433 63.1874 8.693C63.0394 8.42166 62.8791 8.23666 62.7064 8.138L62.4474 7.99C62.2254 7.86667 62.1144 7.731 62.1144 7.583C62.1144 7.48433 62.1514 7.398 62.2254 7.324C62.3241 7.25 62.4228 7.20067 62.5214 7.176L62.6694 7.139C65.2101 6.991 67.8494 6.917 70.5874 6.917C72.8568 6.917 74.6821 6.97867 76.0634 7.102C76.4334 7.102 76.6184 7.26233 76.6184 7.583C76.6184 7.657 76.5814 7.79267 76.5074 7.99C75.6934 10.0373 74.8671 11.6407 74.0284 12.8C73.9051 12.9233 73.7694 12.985 73.6214 12.985C73.3994 12.985 73.2884 12.8247 73.2884 12.504C73.4118 12.0353 73.4734 11.5297 73.4734 10.987C73.4734 8.96433 72.4621 7.953 70.4394 7.953H70.2914C69.0334 7.953 68.1331 8.29833 67.5904 8.989C66.3324 10.543 64.6551 13.2193 62.5584 17.018C62.3118 17.4373 62.0034 17.9677 61.6334 18.609H67.1834C67.4301 18.609 67.5534 18.683 67.5534 18.831C67.5534 18.979 67.4424 19.1517 67.2204 19.349C67.0231 19.5463 66.8011 19.6573 66.5544 19.682ZM83.142 27.489H73.226C72.8067 27.489 72.597 27.3657 72.597 27.119C72.597 26.9217 72.745 26.6627 73.041 26.342C73.3617 25.9967 73.6577 25.824 73.929 25.824H83.808C84.2273 25.824 84.437 25.935 84.437 26.157C84.437 26.4037 84.289 26.675 83.993 26.971C83.7217 27.267 83.438 27.4397 83.142 27.489ZM82.3904 32.447C82.7851 31.4603 83.3401 30.3133 84.0554 29.006C84.7954 27.6987 85.4368 26.638 85.9794 25.824L86.7934 24.64C87.1388 24.1467 87.4841 23.9 87.8294 23.9C88.1008 23.9 88.2364 24.0357 88.2364 24.307L88.1254 24.677C87.2374 26.9217 86.7934 28.858 86.7934 30.486C86.7934 31.7933 87.0771 32.8663 87.6444 33.705C88.2364 34.519 89.1491 34.926 90.3824 34.926C92.2324 34.926 93.7248 34.1243 94.8594 32.521C95.9941 30.893 96.5614 29.1417 96.5614 27.267C96.5614 25.6637 96.0064 23.382 94.8964 20.422C93.8111 17.4373 93.2684 15.4147 93.2684 14.354C93.2684 12.06 94.2428 10.2223 96.1914 8.841C98.1648 7.435 100.323 6.732 102.666 6.732C103.086 6.732 103.493 6.75666 103.887 6.806C104.307 6.85533 104.763 6.94166 105.256 7.065C105.75 7.16366 106.144 7.33633 106.44 7.583C106.736 7.82967 106.884 8.138 106.884 8.508C106.884 9.00133 106.539 9.84 105.848 11.024C105.158 12.208 104.578 13.1083 104.109 13.725C103.937 13.8483 103.789 13.91 103.665 13.91C103.493 13.91 103.406 13.762 103.406 13.466C103.406 12.7753 103.48 11.838 103.628 10.654C103.628 8.73 102.888 7.768 101.408 7.768C100.15 7.768 99.0774 8.19966 98.1894 9.063C97.3261 9.92633 96.8944 10.9747 96.8944 12.208C96.8944 13.836 97.4618 16.1053 98.5964 19.016C99.7558 21.9267 100.335 24.1713 100.335 25.75C100.335 28.71 99.1638 31.152 96.8204 33.076C94.5018 34.9753 91.8871 35.925 88.9764 35.925C88.4831 35.925 87.8911 35.8757 87.2004 35.777C86.5098 35.6783 85.7821 35.518 85.0174 35.296C84.2528 35.0987 83.6114 34.8027 83.0934 34.408C82.5508 33.9887 82.2794 33.52 82.2794 33.002C82.2794 32.8047 82.3164 32.6197 82.3904 32.447ZM113.517 29.413C114.553 28.377 115.922 26.8847 117.624 24.936C117.698 24.862 117.76 24.825 117.809 24.825C117.859 24.825 117.883 24.8743 117.883 24.973C117.883 25.4417 117.698 25.898 117.328 26.342C115.503 28.3647 113.887 30.0543 112.481 31.411C109.521 34.149 107.573 35.518 106.635 35.518C106.265 35.518 106.08 35.2837 106.08 34.815C106.08 33.927 106.586 32.5827 107.597 30.782C108.609 28.9567 109.608 27.267 110.594 25.713C111.606 24.1343 112.111 23.2093 112.111 22.938C112.111 22.79 112.037 22.716 111.889 22.716C111.297 22.716 110.175 23.6287 108.522 25.454C106.87 27.2793 105.476 28.9197 104.341 30.375C103.083 31.9537 101.986 33.2117 101.048 34.149C100.136 35.0863 99.5313 35.6167 99.2353 35.74L98.7543 35.962C98.5323 35.962 98.4213 35.8387 98.4213 35.592C98.4213 35.1973 98.6433 34.4943 99.0873 33.483C99.5313 32.4717 99.9753 31.559 100.419 30.745L101.085 29.524L106.857 19.164C111.396 11.1473 114.973 5.44933 117.587 2.07C118.327 1.08333 118.845 0.589998 119.141 0.589998C119.289 0.589998 119.363 0.688664 119.363 0.885998C119.363 1.404 118.969 2.46467 118.179 4.068C114.307 11.0487 111.618 15.8833 110.113 18.572C109.201 20.2 108.374 21.6553 107.634 22.938C106.894 24.196 106.364 25.084 106.043 25.602C105.747 26.12 105.488 26.5763 105.266 26.971C105.044 27.341 104.872 27.6617 104.748 27.933C104.724 28.007 104.711 28.081 104.711 28.155C104.711 28.2783 104.736 28.34 104.785 28.34C104.835 28.34 104.933 28.266 105.081 28.118C110.607 21.976 114.233 18.905 115.959 18.905C116.305 18.905 116.477 19.0777 116.477 19.423C116.477 19.5217 116.428 19.7437 116.329 20.089C116.231 20.4097 115.947 21.0757 115.478 22.087C115.01 23.0983 114.393 24.2207 113.628 25.454C113.16 26.1447 112.568 27.1313 111.852 28.414C111.137 29.6967 110.779 30.5353 110.779 30.93C110.779 31.152 110.89 31.263 111.112 31.263C111.186 31.263 111.285 31.2383 111.408 31.189C111.556 31.115 111.717 31.004 111.889 30.856C112.062 30.708 112.21 30.5723 112.333 30.449C112.481 30.3257 112.679 30.153 112.925 29.931C113.197 29.6843 113.394 29.5117 113.517 29.413ZM130.277 21.976C130.499 22.0253 130.61 22.0993 130.61 22.198C130.61 22.346 130.512 22.5187 130.314 22.716C130.043 22.9873 129.636 23.345 129.093 23.789C128.575 24.233 128.267 24.5043 128.168 24.603L127.65 25.306C127.132 26.7613 126.331 28.2783 125.245 29.857C124.185 31.411 122.877 32.78 121.323 33.964C119.794 35.148 118.326 35.74 116.92 35.74C115.169 35.74 114.293 34.667 114.293 32.521C114.293 30.6217 114.91 28.5743 116.143 26.379C117.377 24.159 118.968 22.272 120.916 20.718C122.89 19.1393 124.826 18.35 126.725 18.35C128.107 18.35 128.797 18.8927 128.797 19.978C128.797 20.57 128.501 21.3717 127.909 22.383C127.885 22.4077 127.872 22.4447 127.872 22.494C127.872 22.5433 127.897 22.568 127.946 22.568C128.859 22.198 129.636 22.0007 130.277 21.976ZM126.762 22.864C126.96 22.0007 127.058 21.3347 127.058 20.866C127.058 19.83 126.713 19.312 126.022 19.312C125.06 19.312 123.864 20.2 122.433 21.976C121.003 23.752 119.769 25.75 118.733 27.97C117.722 30.19 117.216 31.9413 117.216 33.224C117.216 34.1613 117.549 34.63 118.215 34.63C119.251 34.63 120.485 33.594 121.915 31.522C123.371 29.45 124.246 27.3657 124.542 25.269C124.518 25.2197 124.505 25.1457 124.505 25.047C124.505 24.3317 125.147 23.6903 126.429 23.123C126.627 23.049 126.738 22.9627 126.762 22.864ZM128.341 33.668C128.217 33.89 128.156 34.112 128.156 34.334C128.156 34.778 128.501 35 129.192 35C129.907 35 130.659 34.6793 131.449 34.038C132.238 33.372 132.941 32.5827 133.558 31.67C134.199 30.7327 134.779 29.8077 135.297 28.895C135.839 27.9577 136.246 27.156 136.518 26.49L136.962 25.528C137.603 23.9247 137.924 22.753 137.924 22.013C137.924 21.495 137.739 21.236 137.369 21.236C137.147 21.236 136.925 21.31 136.703 21.458C135.913 21.9513 134.816 23.2217 133.41 25.269C132.028 27.2917 130.844 29.2033 129.858 31.004L128.341 33.668ZM136.222 16.574C136.394 16.574 136.481 16.6727 136.481 16.87C136.481 17.2153 136.271 17.8813 135.852 18.868C135.457 19.8547 135.062 20.7427 134.668 21.532L134.039 22.753C134.014 22.8023 134.002 22.8517 134.002 22.901C134.002 22.975 134.026 23.012 134.076 23.012C134.125 23.012 134.199 22.9627 134.298 22.864C134.372 22.7407 134.483 22.5927 134.631 22.42C134.779 22.2473 135.075 21.9267 135.519 21.458C135.963 20.9647 136.382 20.5453 136.777 20.2C137.196 19.83 137.665 19.497 138.183 19.201C138.725 18.905 139.206 18.757 139.626 18.757C140.588 18.757 141.069 19.5463 141.069 21.125C141.069 22.4077 140.686 23.9863 139.922 25.861C139.922 25.9103 139.774 26.2557 139.478 26.897C139.206 27.5383 138.762 28.3647 138.146 29.376C137.529 30.3873 136.826 31.374 136.037 32.336C135.247 33.2733 134.261 34.0873 133.077 34.778C131.917 35.4687 130.721 35.814 129.488 35.814C129.142 35.814 128.822 35.7647 128.526 35.666C128.23 35.592 128.008 35.5057 127.86 35.407C127.712 35.333 127.613 35.296 127.564 35.296L127.305 35.444C126.639 36.4307 125.578 38.256 124.123 40.92C122.667 43.584 121.508 45.8163 120.645 47.617C120.521 47.839 120.361 48.135 120.164 48.505C119.966 48.875 119.584 49.541 119.017 50.503C118.449 51.465 117.919 52.3037 117.426 53.019C116.908 53.759 116.353 54.425 115.761 55.017C115.144 55.6337 114.626 55.942 114.207 55.942C113.96 55.942 113.837 55.831 113.837 55.609C113.837 54.943 114.564 53.2287 116.02 50.466C117.45 47.728 118.893 45.138 120.349 42.696L122.532 39.07C126.108 32.8293 128.896 27.8713 130.894 24.196C130.943 24.0973 131.017 23.9617 131.116 23.789C131.214 23.5917 131.412 23.234 131.708 22.716C132.004 22.1733 132.287 21.6677 132.559 21.199C132.83 20.7057 133.151 20.1753 133.521 19.608C133.891 19.016 134.236 18.5103 134.557 18.091C134.877 17.647 135.186 17.2893 135.482 17.018C135.778 16.722 136.024 16.574 136.222 16.574Z" fill="#2A629A"/>
</svg>
