<svg width="110" height="110" viewBox="0 0 110 110" fill="#2A629A" xmlns="http://www.w3.org/2000/svg">
<circle cx="55" cy="55" r="53.5" fill="white" stroke="#2A629A" stroke-width="01"/>
<path d="M40.8883 39.6238C39.5983 39.6238 37.8353 40.6271 35.5993 42.6338C34.8253 43.2644 34.3666 43.7804 34.2233 44.1818C33.3059 46.5898 32.4029 50.4024 31.5143 55.6198C30.6256 60.8084 30.1813 64.6498 30.1813 67.1438C30.1813 67.9464 30.2099 68.6631 30.2673 69.2938C30.3246 69.8958 30.3819 70.2971 30.4393 70.4978L30.5253 70.8418C30.5826 71.1284 30.6113 71.2861 30.6113 71.3148C30.6113 71.6301 30.4679 71.7878 30.1813 71.7878C29.8659 71.7878 29.4789 71.6014 29.0203 71.2288C28.5616 70.8848 28.1459 70.3974 27.7733 69.7668C27.0566 68.5054 26.6983 66.5991 26.6983 64.0478C26.6983 60.1204 27.6299 55.3188 29.4933 49.6428C29.5793 49.2988 29.6223 49.0694 29.6223 48.9548C29.6223 48.7541 29.5649 48.6538 29.4503 48.6538L28.8913 48.9978C26.7986 50.6891 24.5053 53.1688 22.0113 56.4368C21.1226 57.5834 20.2626 58.8161 19.4313 60.1348C18.5999 61.4534 17.9979 62.4854 17.6253 63.2308L17.0663 64.3488C16.3783 65.8394 15.3319 67.4018 13.9273 69.0358C12.5226 70.6698 11.3473 71.4868 10.4013 71.4868C10.0859 71.4868 9.92827 71.3291 9.92827 71.0138L10.0573 70.4548C10.3726 69.5661 11.7056 66.8284 14.0563 62.2418C16.4069 57.6264 18.2846 54.1004 19.6893 51.6638C21.0366 49.3418 22.3553 47.1488 23.6453 45.0848C24.9353 43.0208 25.8956 41.5444 26.5263 40.6558L27.4723 39.2798C27.6156 39.0791 27.8019 38.8354 28.0313 38.5488C28.2606 38.2334 28.7336 37.8178 29.4503 37.3018C30.1669 36.7858 30.8693 36.5134 31.5573 36.4848C31.8726 36.4848 32.0303 36.6424 32.0303 36.9578C32.0303 37.1584 31.9586 37.3878 31.8153 37.6458C28.1459 43.5224 25.5229 48.0948 23.9463 51.3628C23.9176 51.5348 23.9033 51.6781 23.9033 51.7928C23.9033 51.9648 23.9463 52.0508 24.0323 52.0508C24.1469 52.0508 24.3189 51.9361 24.5483 51.7068L28.9343 47.2778C36.4163 39.9678 41.2466 36.2984 43.4253 36.2698C44.2279 36.2698 44.6293 36.7428 44.6293 37.6888C44.6293 38.4341 44.3999 39.2081 43.9413 40.0108C43.5113 40.7848 43.0956 41.1718 42.6943 41.1718C42.5223 41.1718 42.4219 41.0571 42.3933 40.8278C42.3646 40.7418 42.3216 40.6414 42.2643 40.5268C42.2356 40.3834 42.0923 40.1971 41.8343 39.9678C41.5763 39.7384 41.2609 39.6238 40.8883 39.6238ZM60.3206 51.7498C58.5432 51.8358 56.5652 51.8788 54.3866 51.8788H53.8706C49.8286 59.2174 47.4206 64.1911 46.6466 66.7998C46.5319 67.1438 46.4746 67.4591 46.4746 67.7458C46.4746 68.6058 47.2342 69.0358 48.7536 69.0358C49.3842 69.0358 50.0722 68.9211 50.8176 68.6918C51.5629 68.4338 52.4659 68.0038 53.5266 67.4018C54.6159 66.7711 55.8342 65.7821 57.1816 64.4348C58.5289 63.0874 59.9049 61.4534 61.3096 59.5328C61.4816 59.2174 61.7396 59.0598 62.0836 59.0598C62.3129 59.0598 62.4276 59.1744 62.4276 59.4038C62.4276 59.4611 62.3989 59.5758 62.3416 59.7478C60.9656 63.2738 59.2169 66.4271 57.0956 69.2078C56.9236 69.6091 56.4936 69.8671 55.8056 69.9818C53.4549 70.0964 50.9752 70.1538 48.3666 70.1538C45.3852 70.1538 42.9772 70.0534 41.1426 69.8528C40.7986 69.8241 40.6266 69.6234 40.6266 69.2508C40.6266 69.0214 40.6839 68.7921 40.7986 68.5628C42.4326 64.8934 45.5142 59.3178 50.0436 51.8358L48.1086 51.7928C47.7359 51.7928 47.5496 51.6781 47.5496 51.4488C47.5496 51.2194 47.6642 51.0188 47.8936 50.8468C48.1516 50.6461 48.4096 50.5458 48.6676 50.5458H50.8606L56.0636 42.2038C56.4936 41.4298 56.7086 40.7274 56.7086 40.0968C56.7086 39.6668 56.6082 39.2941 56.4076 38.9788C56.2356 38.6634 56.0492 38.4484 55.8486 38.3338L55.5476 38.1618C55.2896 38.0184 55.1606 37.8608 55.1606 37.6888C55.1606 37.5741 55.2036 37.4738 55.2896 37.3878C55.4042 37.3018 55.5189 37.2444 55.6336 37.2158L55.8056 37.1728C58.7582 37.0008 61.8256 36.9148 65.0076 36.9148C67.6449 36.9148 69.7662 36.9864 71.3716 37.1298C71.8016 37.1298 72.0166 37.3161 72.0166 37.6888C72.0166 37.7748 71.9736 37.9324 71.8876 38.1618C70.9416 40.5411 69.9812 42.4044 69.0066 43.7518C68.8632 43.8951 68.7056 43.9668 68.5336 43.9668C68.2756 43.9668 68.1466 43.7804 68.1466 43.4078C68.2899 42.8631 68.3616 42.2754 68.3616 41.6448C68.3616 39.2941 67.1862 38.1188 64.8356 38.1188H64.6636C63.2016 38.1188 62.1552 38.5201 61.5246 39.3228C60.0626 41.1288 58.1132 44.2391 55.6766 48.6538C55.3899 49.1411 55.0316 49.7574 54.6016 50.5028H61.0516C61.3382 50.5028 61.4816 50.5888 61.4816 50.7608C61.4816 50.9328 61.3526 51.1334 61.0946 51.3628C60.8652 51.5921 60.6072 51.7211 60.3206 51.7498ZM70.568 66.5848C71.0267 65.4381 71.6717 64.1051 72.503 62.5858C73.363 61.0664 74.1083 59.8338 74.739 58.8878L75.685 57.5118C76.0863 56.9384 76.4877 56.6518 76.889 56.6518C77.2043 56.6518 77.362 56.8094 77.362 57.1248L77.233 57.5548C76.201 60.1634 75.685 62.4138 75.685 64.3058C75.685 65.8251 76.0147 67.0721 76.674 68.0468C77.362 68.9928 78.4227 69.4658 79.856 69.4658C82.006 69.4658 83.7403 68.5341 85.059 66.6708C86.3777 64.7788 87.037 62.7434 87.037 60.5648C87.037 58.7014 86.392 56.0498 85.102 52.6098C83.8407 49.1411 83.21 46.7904 83.21 45.5578C83.21 42.8918 84.3423 40.7561 86.607 39.1508C88.9003 37.5168 91.4087 36.6998 94.132 36.6998C94.6193 36.6998 95.0923 36.7284 95.551 36.7858C96.0383 36.8431 96.5687 36.9434 97.142 37.0868C97.7153 37.2014 98.174 37.4021 98.518 37.6888C98.862 37.9754 99.034 38.3338 99.034 38.7638C99.034 39.3371 98.6327 40.3118 97.83 41.6878C97.0273 43.0638 96.3537 44.1101 95.809 44.8268C95.6083 44.9701 95.4363 45.0418 95.293 45.0418C95.0923 45.0418 94.992 44.8698 94.992 44.5258C94.992 43.7231 95.078 42.6338 95.25 41.2578C95.25 39.0218 94.39 37.9038 92.67 37.9038C91.208 37.9038 89.961 38.4054 88.929 39.4088C87.9257 40.4121 87.424 41.6304 87.424 43.0638C87.424 44.9558 88.0833 47.5931 89.402 50.9758C90.7493 54.3584 91.423 56.9671 91.423 58.8018C91.423 62.2418 90.0613 65.0798 87.338 67.3158C84.6433 69.5231 81.6047 70.6268 78.222 70.6268C77.6487 70.6268 76.9607 70.5694 76.158 70.4548C75.3553 70.3401 74.5097 70.1538 73.621 69.8958C72.7323 69.6664 71.987 69.3224 71.385 68.8638C70.7543 68.3764 70.439 67.8318 70.439 67.2298C70.439 67.0004 70.482 66.7854 70.568 66.5848Z" fill="#2A629A"/>
</svg>
