<svg width="34" height="34" viewBox="0 0 34 34" fill="none" xmlns="http://www.w3.org/2000/svg">
<path fill-rule="evenodd" clip-rule="evenodd" d="M17.0071 0C21.3213 0 24.839 3.40488 24.886 7.60564L25.2681 7.60737C30.0839 7.60737 34 11.4239 34 16.1159V25.4932C34 30.1835 30.0839 34 25.2681 34H8.7319C3.91785 34 0 30.1835 0 25.4932V16.1159C0 11.4239 3.91785 7.60737 8.7319 7.60737L9.08759 7.60584L9.09865 7.27523C9.20814 5.34663 10.0228 3.57738 11.4207 2.22871C12.9167 0.782004 14.9253 0.0595003 17.0071 0ZM25.2681 10.1574L24.8863 10.1559L24.8864 12.8453C24.8864 13.5491 24.3006 14.1203 23.5787 14.1203C22.8569 14.1203 22.271 13.5491 22.271 12.8453L22.2709 10.1559H11.7012L11.7014 12.8453C11.7014 13.5491 11.1156 14.1203 10.3937 14.1203C9.67187 14.1203 9.08602 13.5491 9.08602 12.8453L9.08585 10.1559L8.7319 10.1574C5.35979 10.1574 2.61538 12.8298 2.61538 16.1159V25.4932C2.61538 28.7776 5.35979 31.45 8.7319 31.45H25.2681C28.6402 31.45 31.3846 28.7776 31.3846 25.4932V16.1159C31.3846 12.8298 28.6402 10.1574 25.2681 10.1574ZM17.0019 2.55001C15.5879 2.59761 14.2627 3.07362 13.2619 4.03922C12.2756 4.99249 11.7228 6.25615 11.702 7.60567L22.2674 7.60584L22.2621 7.3893C22.1016 4.69509 19.8047 2.55001 17.0019 2.55001Z" fill="#3681F0"/>
</svg>
