<svg width="21" height="21" viewBox="0 0 21 21" fill="none" xmlns="http://www.w3.org/2000/svg">
<path fill-rule="evenodd" clip-rule="evenodd" d="M10.1603 -0.000274658C12.7377 -0.000274658 14.8392 2.08604 14.8673 4.66002L15.0956 4.66108C17.9727 4.66108 20.3123 6.99962 20.3123 9.87462V15.6205C20.3123 18.4944 17.9727 20.833 15.0956 20.833H5.21642C2.34038 20.833 -0.000244141 18.4944 -0.000244141 15.6205V9.87462C-0.000244141 6.99962 2.34038 4.66108 5.21642 4.66108L5.42892 4.66014L5.43553 4.45756C5.50094 3.27583 5.98764 2.19174 6.82278 1.36535C7.71653 0.478892 8.91653 0.0361837 10.1603 -0.000274658ZM15.0956 6.22358L14.8675 6.22264L14.8676 7.87056C14.8676 8.30181 14.5176 8.65181 14.0863 8.65181C13.6551 8.65181 13.3051 8.30181 13.3051 7.87056L13.305 6.22264H6.99038L6.99048 7.87056C6.99048 8.30181 6.64048 8.65181 6.20923 8.65181C5.77798 8.65181 5.42798 8.30181 5.42798 7.87056L5.42788 6.22264L5.21642 6.22358C3.20184 6.22358 1.56226 7.86108 1.56226 9.87462V15.6205C1.56226 17.633 3.20184 19.2705 5.21642 19.2705H15.0956C17.1102 19.2705 18.7498 17.633 18.7498 15.6205V9.87462C18.7498 7.86108 17.1102 6.22358 15.0956 6.22358ZM10.1572 1.56223C9.31236 1.59139 8.52069 1.88306 7.92278 2.47473C7.33354 3.05883 7.00328 3.83313 6.99083 4.66004L13.3029 4.66014L13.2997 4.52746C13.2038 2.8766 11.8316 1.56223 10.1572 1.56223Z" fill="#2A629A"/>
</svg>
