<svg width="23" height="20" viewBox="0 0 23 20" fill="none" xmlns="http://www.w3.org/2000/svg">
<path d="M20.7 0H2.3C1.035 0 0.0115 1.125 0.0115 2.5L0 17.5C0 18.875 1.035 20 2.3 20H20.7C21.965 20 23 18.875 23 17.5V2.5C23 1.125 21.965 0 20.7 0ZM20.24 5.3125L12.1095 10.8375C11.7415 11.0875 11.2585 11.0875 10.8905 10.8375L2.76 5.3125C2.64469 5.24214 2.54371 5.14708 2.46317 5.03307C2.38264 4.91906 2.32422 4.78847 2.29146 4.64921C2.2587 4.50995 2.25228 4.36492 2.27258 4.22288C2.29288 4.08085 2.33949 3.94477 2.40957 3.82288C2.47966 3.70099 2.57177 3.59582 2.68034 3.51374C2.7889 3.43167 2.91165 3.37439 3.04117 3.34537C3.17069 3.31636 3.30428 3.31621 3.43385 3.34494C3.56342 3.37366 3.68628 3.43067 3.795 3.5125L11.5 8.75L19.205 3.5125C19.3137 3.43067 19.4366 3.37366 19.5662 3.34494C19.6957 3.31621 19.8293 3.31636 19.9588 3.34537C20.0883 3.37439 20.2111 3.43167 20.3197 3.51374C20.4282 3.59582 20.5203 3.70099 20.5904 3.82288C20.6605 3.94477 20.7071 4.08085 20.7274 4.22288C20.7477 4.36492 20.7413 4.50995 20.7085 4.64921C20.6758 4.78847 20.6174 4.91906 20.5368 5.03307C20.4563 5.14708 20.3553 5.24214 20.24 5.3125Z" fill="#2A629A"/>
</svg>
