<svg width="22" height="21" viewBox="0 0 22 21" fill="none" xmlns="http://www.w3.org/2000/svg">
<path fill-rule="evenodd" clip-rule="evenodd" d="M10.6612 1.12401C12.3549 0.0531769 14.6049 -0.242656 16.5487 0.38026C20.7768 1.7438 22.0893 6.35318 20.9153 10.0209C19.1039 15.7813 11.3674 20.0782 11.0393 20.2584C10.9226 20.323 10.7935 20.3553 10.6643 20.3553C10.5351 20.3553 10.407 20.324 10.2903 20.2605C9.9643 20.0823 2.28409 15.849 0.412211 10.0219L0.411169 10.0209C-0.763831 6.35213 0.544503 1.74172 4.76846 0.38026C6.75179 -0.261407 8.91325 0.0208852 10.6612 1.12401ZM5.24763 1.86776C1.82992 2.96984 0.971586 6.64588 1.89971 9.54484C3.36013 14.0886 9.12992 17.7626 10.6633 18.6719C12.2018 17.7532 18.0133 14.0386 19.4268 9.54901C20.3549 6.64693 19.4935 2.97089 16.0705 1.86776C14.4122 1.33547 12.4778 1.65943 11.1424 2.69276C10.8633 2.90734 10.4758 2.91151 10.1945 2.69901C8.77992 1.63547 6.932 1.32401 5.24763 1.86776ZM15.0705 3.93641C16.4903 4.39578 17.4851 5.65307 17.607 7.13953C17.6414 7.56974 17.3216 7.94682 16.8914 7.9812C16.8695 7.98328 16.8487 7.98432 16.8268 7.98432C16.4237 7.98432 16.082 7.67495 16.0487 7.26661C15.9799 6.41036 15.407 5.68745 14.5914 5.42391C14.1799 5.29057 13.9549 4.84995 14.0872 4.44057C14.2216 4.03016 14.658 3.80724 15.0705 3.93641Z" fill="#2A629A"/>
</svg>
