<svg width="22" height="24" viewBox="0 0 22 24" fill="none" xmlns="http://www.w3.org/2000/svg">
<path fill-rule="evenodd" clip-rule="evenodd" d="M12.2052 15.8451C13.4594 15.8451 14.4802 16.8586 14.4802 18.1045V21.3086C14.4802 21.5763 14.6948 21.7909 14.9698 21.7972H16.9552C18.5198 21.7972 19.7917 20.5409 19.7917 18.9972V9.90968C19.7844 9.37843 19.5312 8.87843 19.0969 8.54613L12.2292 3.06905C11.3073 2.33884 10.0177 2.33884 9.09271 3.07113L2.27187 8.54405C1.82083 8.88676 1.56771 9.38676 1.5625 9.92738V18.9972C1.5625 20.5409 2.83437 21.7972 4.39896 21.7972H6.40312C6.68542 21.7972 6.91458 21.5732 6.91458 21.2982C6.91458 21.2378 6.92187 21.1774 6.93437 21.1201V18.1045C6.93437 16.8659 7.94896 15.8534 9.19375 15.8451H12.2052ZM16.9552 23.3597H14.951C13.8031 23.3326 12.9177 22.4316 12.9177 21.3086V18.1045C12.9177 17.7201 12.5979 17.4076 12.2052 17.4076H9.19896C8.81458 17.4097 8.49687 17.7232 8.49687 18.1045V21.2982C8.49687 21.3763 8.48646 21.4513 8.46458 21.5222C8.35208 22.5534 7.47083 23.3597 6.40312 23.3597H4.39896C1.97292 23.3597 0 21.4024 0 18.9972V9.92009C0.0104167 8.88468 0.4875 7.93676 1.31146 7.3128L8.11875 1.84926C9.61771 0.66176 11.7063 0.66176 13.2021 1.84718L20.0583 7.31593C20.8635 7.92947 21.3406 8.8753 21.3542 9.89822V18.9972C21.3542 21.4024 19.3813 23.3597 16.9552 23.3597Z" fill="#2A629A"/>
</svg>
