<svg width="24" height="24" viewBox="0 0 24 24" fill="none" xmlns="http://www.w3.org/2000/svg">
<path d="M6.05118 12.9239H0.987164C0.448711 12.9239 0 12.5159 0 11.9999C0 11.4959 0.448711 11.0759 0.987164 11.0759H6.05118L6.05157 5.34C6.05157 2.4 8.66035 0 11.8561 0H18.2215C21.4043 0 24 2.4 24 5.328V18.672C24 21.612 21.4043 24 18.1955 24H11.8431C8.66035 24 6.05157 21.612 6.05157 18.684L6.05118 12.9239L14.1388 12.924L12.0518 14.844C11.6605 15.204 11.6605 15.792 12.0518 16.152C12.2474 16.332 12.5083 16.416 12.7692 16.416C13.017 16.416 13.2779 16.332 13.4736 16.152L17.2824 12.66C17.478 12.492 17.5824 12.252 17.5824 12C17.5824 11.76 17.478 11.52 17.2824 11.352L13.4736 7.86C13.0822 7.5 12.4431 7.5 12.0518 7.86C11.6605 8.22 11.6605 8.808 12.0518 9.168L14.1388 11.076L6.05118 11.0759V12.9239Z" fill="white"/>
</svg>
