<svg width="25" height="22" viewBox="0 0 25 22" fill="none" xmlns="http://www.w3.org/2000/svg">
<path d="M13.3339 0.785381C13.3338 0.672131 13.3078 0.56023 13.2576 0.457344C13.2074 0.354458 13.1342 0.26302 13.043 0.189293C12.9518 0.115567 12.8448 0.0612966 12.7293 0.0301998C12.6138 -0.000896914 12.4925 -0.00808461 12.3738 0.00912926L0.706694 1.69048C0.509991 1.719 0.330607 1.81295 0.200989 1.95532C0.0713703 2.0977 7.57264e-05 2.27911 0 2.46673V19.5317C7.57264e-05 19.7193 0.0713703 19.9007 0.200989 20.0431C0.330607 20.1855 0.509991 20.2794 0.706694 20.3079L12.3738 21.9909C12.4925 22.0081 12.6138 22.0009 12.7293 21.9698C12.8448 21.9387 12.9518 21.8844 13.043 21.8107C13.1342 21.737 13.2074 21.6455 13.2576 21.5427C13.3078 21.4398 13.3338 21.3279 13.3339 21.2146V10.9992H21.9542L20.2925 12.3726C20.136 12.5122 20.043 12.7034 20.0329 12.9063C20.0228 13.1091 20.0964 13.3077 20.2382 13.4605C20.38 13.6133 20.5791 13.7085 20.7937 13.7259C21.0082 13.7434 21.2217 13.6819 21.3892 13.5542L24.716 10.8044C24.8052 10.7306 24.8767 10.6398 24.9257 10.5379C24.9747 10.436 25 10.3254 25 10.2135C25 10.1017 24.9747 9.99109 24.9257 9.88919C24.8767 9.7873 24.8052 9.69644 24.716 9.6227L21.3892 6.87283C21.223 6.73571 21.0058 6.66647 20.7854 6.68032C20.5651 6.69417 20.3596 6.78998 20.2141 6.94668C20.0687 7.10338 19.9952 7.30813 20.0099 7.51588C20.0246 7.72363 20.1262 7.91738 20.2925 8.05449L21.9542 9.42786H13.3339V0.785381ZM9.16702 12.9634C8.83549 12.9634 8.51753 12.8392 8.2831 12.6182C8.04867 12.3972 7.91697 12.0975 7.91697 11.7849C7.91697 11.4723 8.04867 11.1726 8.2831 10.9516C8.51753 10.7305 8.83549 10.6064 9.16702 10.6064C9.49856 10.6064 9.81651 10.7305 10.0509 10.9516C10.2854 11.1726 10.4171 11.4723 10.4171 11.7849C10.4171 12.0975 10.2854 12.3972 10.0509 12.6182C9.81651 12.8392 9.49856 12.9634 9.16702 12.9634ZM15.8339 20.4274H15.0006V12.5706H16.6673V19.6417C16.6673 19.8501 16.5795 20.0499 16.4232 20.1973C16.2669 20.3446 16.055 20.4274 15.8339 20.4274ZM15.0006 7.8565V1.57106H15.8339C16.055 1.57106 16.2669 1.65384 16.4232 1.80118C16.5795 1.94852 16.6673 2.14836 16.6673 2.35674V7.8565H15.0006Z" fill="#2A629A"/>
</svg>
