<svg width="20" height="22" viewBox="0 0 20 22" fill="none" xmlns="http://www.w3.org/2000/svg">
<path d="M20 17.8095V18.8571H0V17.8095L2.22222 15.7143V9.42857C2.22222 6.18095 4.47778 3.32095 7.77778 2.39905V2.09524C7.77778 1.53955 8.0119 1.00661 8.42865 0.613681C8.8454 0.220748 9.41063 0 10 0C10.5894 0 11.1546 0.220748 11.5713 0.613681C11.9881 1.00661 12.2222 1.53955 12.2222 2.09524V2.39905C15.5222 3.32095 17.7778 6.18095 17.7778 9.42857V15.7143L20 17.8095ZM12.2222 19.9048C12.2222 20.4605 11.9881 20.9934 11.5713 21.3863C11.1546 21.7793 10.5894 22 10 22C9.41063 22 8.8454 21.7793 8.42865 21.3863C8.0119 20.9934 7.77778 20.4605 7.77778 19.9048" fill="#3681F0"/>
</svg>
