<svg width="21" height="22" viewBox="0 0 21 22" fill="none" xmlns="http://www.w3.org/2000/svg">
<path fill-rule="evenodd" clip-rule="evenodd" d="M10.695 0.000579834C11.4408 0.000579834 12.1658 0.30683 12.6856 0.839122C13.2044 1.37454 13.4908 2.10891 13.469 2.8537C13.471 3.02141 13.5263 3.21516 13.6263 3.38495C13.7919 3.6662 14.0533 3.86412 14.3638 3.94537C14.6742 4.02245 14.9992 3.98079 15.2752 3.81725C16.6085 3.05579 18.3054 3.51204 19.0669 4.83495L19.7158 5.95891C19.7325 5.98912 19.7471 6.01829 19.7596 6.0485C20.4492 7.35162 19.9888 8.99225 18.7075 9.7412C18.521 9.8485 18.37 9.9985 18.2658 10.1797C18.1044 10.46 18.0596 10.7933 18.1408 11.0995C18.2242 11.412 18.4231 11.6714 18.7033 11.8318C19.3356 12.1954 19.8075 12.8079 19.996 13.5152C20.1846 14.2214 20.0815 14.9881 19.7138 15.6204L19.0221 16.7725C18.2606 18.0808 16.5638 18.5339 15.244 17.7714C15.0679 17.6704 14.8648 17.6152 14.6627 17.61H14.6565C14.3554 17.61 14.046 17.7381 13.821 17.962C13.5929 18.1902 13.4679 18.4943 13.47 18.8172C13.4627 20.3475 12.2179 21.585 10.695 21.585H9.3898C7.85959 21.585 6.61479 20.3412 6.61479 18.811C6.61271 18.6225 6.55855 18.4266 6.4575 18.2568C6.29396 17.9714 6.02938 17.7672 5.72417 17.686C5.42104 17.6047 5.08875 17.6495 4.81584 17.8079C4.16167 18.1725 3.39188 18.261 2.68771 18.0631C1.98459 17.8641 1.37729 17.3808 1.02104 16.7402L0.370003 15.6183C-0.391456 14.2975 0.0616693 12.6047 1.38042 11.8422C1.75438 11.6266 1.98667 11.2245 1.98667 10.7933C1.98667 10.362 1.75438 9.95891 1.38042 9.74329C0.0606277 8.97662 -0.391456 7.27975 0.368961 5.95891L1.07521 4.79954C1.82625 3.49329 3.52417 3.03287 4.84813 3.79329C5.02834 3.90058 5.22417 3.95475 5.42313 3.95683C6.07209 3.95683 6.61479 3.42141 6.62521 2.76308C6.62104 2.03704 6.9075 1.34016 7.42938 0.814121C7.95334 0.289122 8.64917 0.000579834 9.3898 0.000579834H10.695ZM10.695 1.56308H9.3898C9.06688 1.56308 8.7648 1.68912 8.53667 1.9162C8.30959 2.14433 8.18563 2.44745 8.18771 2.77037C8.16584 4.29329 6.92104 5.51933 5.41375 5.51933C4.93042 5.51412 4.46479 5.38391 4.06063 5.14225C3.49292 4.81933 2.75125 5.01829 2.41896 5.59641L1.71375 6.75579C1.39084 7.3162 1.58875 8.05683 2.16375 8.3912C3.01688 8.88495 3.54917 9.80579 3.54917 10.7933C3.54917 11.7808 3.01688 12.7006 2.16167 13.1954C1.58979 13.5266 1.39188 14.2631 1.72313 14.836L2.38042 15.9693C2.54292 16.262 2.80854 16.4735 3.11584 16.56C3.42209 16.6454 3.75959 16.6089 4.04084 16.4527C4.45438 16.21 4.93563 16.0839 5.41896 16.0839C5.6575 16.0839 5.89604 16.1141 6.12938 16.1766C6.83354 16.3662 7.445 16.837 7.8075 17.4693C8.04292 17.8662 8.17313 18.3297 8.17729 18.8027C8.17729 19.4797 8.72105 20.0225 9.3898 20.0225H10.695C11.3606 20.0225 11.9044 19.4829 11.9075 18.8172C11.9033 18.0818 12.1908 17.3829 12.7169 16.8568C13.2356 16.3381 13.9606 16.0266 14.6856 16.0475C15.1606 16.0589 15.6179 16.187 16.021 16.4162C16.6013 16.7485 17.3419 16.5506 17.6773 15.9777L18.369 14.8245C18.5231 14.5589 18.5679 14.2256 18.4856 13.9183C18.4044 13.611 18.2002 13.3443 17.9252 13.187C17.2815 12.8162 16.8221 12.2183 16.6315 11.5016C16.4429 10.7985 16.546 10.0308 16.9138 9.3985C17.1533 8.98183 17.5044 8.63079 17.9252 8.38912C18.4898 8.05891 18.6877 7.32037 18.3596 6.74537C18.346 6.72246 18.3335 6.6985 18.3231 6.6735L17.7127 5.61516C17.3804 5.03704 16.6408 4.83808 16.0606 5.16829C15.4335 5.53912 14.6877 5.64537 13.971 5.45683C13.2554 5.27141 12.6554 4.81829 12.2815 4.1787C12.0419 3.7787 11.9117 3.31308 11.9075 2.83912C11.9169 2.48287 11.7919 2.16308 11.5648 1.9287C11.3388 1.69537 11.021 1.56308 10.695 1.56308ZM10.047 7.26527C11.9918 7.26527 13.5741 8.8486 13.5741 10.7934C13.5741 12.7382 11.9918 14.3194 10.047 14.3194C8.10219 14.3194 6.5199 12.7382 6.5199 10.7934C6.5199 8.8486 8.10219 7.26527 10.047 7.26527ZM10.047 8.82777C8.96365 8.82777 8.0824 9.71006 8.0824 10.7934C8.0824 11.8767 8.96365 12.7569 10.047 12.7569C11.1303 12.7569 12.0116 11.8767 12.0116 10.7934C12.0116 9.71006 11.1303 8.82777 10.047 8.82777Z" fill="#2A629A"/>
</svg>
