<svg width="24" height="24" viewBox="0 0 24 24" fill="none" xmlns="http://www.w3.org/2000/svg">
<path fill-rule="evenodd" clip-rule="evenodd" d="M11.2019 0.04289C11.6904 0.04289 12.087 0.438797 12.087 0.926612C12.087 1.41443 11.6904 1.81033 11.2019 1.81033H6.78933C3.73986 1.81033 1.77021 3.89592 1.77021 7.12327V16.9196C1.77021 20.147 3.73986 22.2326 6.78933 22.2326H17.2029C20.2523 22.2326 22.2232 20.147 22.2232 16.9196V12.1734C22.2232 11.6856 22.6197 11.2897 23.1083 11.2897C23.5969 11.2897 23.9934 11.6856 23.9934 12.1734V16.9196C23.9934 21.1544 21.2637 24 17.2029 24H6.78933C2.72848 24 0 21.1544 0 16.9196V7.12327C0 2.88847 2.72848 0.04289 6.78933 0.04289H11.2019ZM21.4804 1.07814L22.9166 2.51213C23.6164 3.20968 24.0012 4.137 24 5.12441C24 6.11182 23.6153 7.03796 22.9166 7.73433L14.055 16.5822C13.4047 17.2314 12.5385 17.5896 11.618 17.5896H7.19719C6.9588 17.5896 6.72985 17.493 6.56346 17.3221C6.39706 17.1525 6.30619 16.9227 6.31209 16.6835L6.42302 12.2307C6.44544 11.3446 6.80302 10.5116 7.43086 9.88354L16.2512 1.07814C17.6933 -0.35938 20.0383 -0.35938 21.4804 1.07814ZM15.5247 4.30196L8.68298 11.1337C8.37733 11.4389 8.20385 11.8442 8.19323 12.2743L8.10472 15.8222H11.618C12.0664 15.8222 12.4866 15.6489 12.804 15.332L19.6871 8.45781L15.5247 4.30196ZM17.5022 2.32831L16.7757 3.05179L20.938 7.20881L21.6657 6.48416C22.0292 6.12125 22.2298 5.63815 22.2298 5.12441C22.2298 4.60949 22.0292 4.12521 21.6657 3.7623L20.2295 2.32831C19.4777 1.58009 18.2551 1.58009 17.5022 2.32831Z" fill="white"/>
</svg>
