<svg width="19" height="17" viewBox="0 0 19 17" fill="none" xmlns="http://www.w3.org/2000/svg">
<path d="M8.73707 0.670642C9.0511 -0.218776 10.3089 -0.218775 10.623 0.670644L12.1282 4.93375C12.2693 5.3335 12.6472 5.60081 13.0711 5.60081H17.7535C18.7422 5.60081 19.1312 6.88258 18.3093 7.43212L14.6681 9.86662C14.2882 10.1206 14.1288 10.5999 14.2809 11.0309L15.7048 15.0634C16.025 15.9703 15.0055 16.7622 14.206 16.2277L10.2358 13.5732C9.89942 13.3483 9.46062 13.3483 9.12421 13.5732L5.15403 16.2277C4.35452 16.7622 3.33506 15.9703 3.65527 15.0634L5.07909 11.0309C5.23125 10.5999 5.07188 10.1206 4.69195 9.86662L1.05075 7.43212C0.228824 6.88258 0.617846 5.60081 1.60656 5.60081H6.2889C6.71284 5.60081 7.09071 5.3335 7.23185 4.93375L8.73707 0.670642Z" fill="#2A629A"/>
</svg>
