<svg width="20" height="25" viewBox="0 0 20 25" fill="none" xmlns="http://www.w3.org/2000/svg">
<path d="M9.9749 0C12.7603 0 15.2218 1.8276 16.1303 4.53484C16.2259 4.80817 16.202 5.10635 16.0825 5.36726C15.9629 5.62817 15.749 5.82696 15.4848 5.91517C14.9468 6.11271 14.3491 5.81577 14.1458 5.24426C13.5362 3.40423 11.8637 2.17424 9.9988 2.17424C7.55888 2.17424 5.58757 4.21305 5.57442 6.70907V8.38634L5.56007 8.38883H14.9779C17.7513 8.38883 20 10.7258 20 13.6082V19.7806C20 22.663 17.7513 25 14.9779 25H5.02092C2.24866 25 0 22.663 0 19.7806V13.6082C0 11.2377 1.53019 9.25852 3.61267 8.6224L3.48237 8.63855V6.73392C3.50628 3.02033 6.41243 0 9.9749 0ZM9.99402 14.2282C9.4202 14.2282 8.95397 14.7128 8.95397 15.3091V18.0673C8.95397 18.6761 9.4202 19.1606 9.99402 19.1606C10.5798 19.1606 11.046 18.6761 11.046 18.0673V15.3091C11.046 14.7128 10.5798 14.2282 9.99402 14.2282Z" fill="#2A629A"/>
</svg>
